<mxfile host="65bd71144e">
    <diagram id="OStPy1ZySlZj93yj2afR" name="Page-1">
        <mxGraphModel dx="1862" dy="162" grid="1" gridSize="10" guides="1" tooltips="1" connect="1" arrows="1" fold="1" page="1" pageScale="1" pageWidth="850" pageHeight="1100" math="0" shadow="0">
            <root>
                <mxCell id="0"/>
                <mxCell id="1" parent="0"/>
                <mxCell id="2" value="" style="shape=image;verticalLabelPosition=bottom;labelBackgroundColor=default;verticalAlign=top;aspect=fixed;imageAspect=0;image=data:image/png,iVBORw0KGgoAAAANSUhEUgAABusAAACRCAYAAADKBoUxAAAAAXNSR0IArs4c6QAAAARnQU1BAACxjwv8YQUAAAAJcEhZcwAADsMAAA7DAcdvqGQAAEeZSURBVHhe7d0JtF5Xfd7/fTVczfMsWZItX+GJwTI2yIMCwW1xwBRCLFKyVhbJgjbtWkkTrLZpS7uS0IauprWdFtqulUBZ6b+wUosyhDCEEgxY2AIbG/CEkTwIzZJlDVfjtYb/+5y7f/K+W+ec95z3Pe94v5+1zrrvu88+++wzvK909WjvM3ChxgEAAAAAAAAAAABouwn+JwAAAAAAAAAAAIA2I6wDAAAAAAAAAAAAOoSwDgAAAAAAAAAAAOgQwjoAAAAAAAAAAACgQwjrAAAAAAAAAAAAgA4hrAMAAAAAAAAAAAA6hLAOAAAAAAAAAAAA6BDCOgAAAAAAAAAAAKBDCOsAAAAAAAAAAACADiGsAwAAAAAAAAAAADpk4EKNf43xxF/2tIs/4H8mBsa8AwAAAAAAAAAAQIUI63rQudOn3amXXnKntbz8crKcOXzYnTlyxI0cPerOHDvmXqktI8ePu1dqy9mTJ0eX2nba9tzIyMWwrp4Jkye7iYODbuK0aW5SbZk8fbqbNGOGG5w5002eNcsNzp7tBufMcVPmzk2WqfPnjy4LFripCxcmZQAAAAAAAAAAAEhHWNeFFKwd373bHd+1y52o/TyxZ487sXevO7lvnztRW04dOOBGjh3ztbuXgr7pS5aMLkuXuhnLlrnptWXmihVuRm2ZedllbtrChb42AAAAAAAAAADA+ENY10EaEXfshReSZfjFF92xHTvcsJadO5NRc/1u0tSpbuaqVW6WltWr3ezLLx9d1qxJygAAAAAAAAAAAPodYV2baFTc4WefdUe2bXNHfvYzd3T7dnektmj6ynbSaLbYzJUr/atRx3fu9K9GaYRfOw1MnOjmDg25ObVl7tq1bu5rXpMs8666ytcAAAAAAAAAAADoD4R1LXB+ZMS9/PTTo8szz7jDP/1p8lPPk6uCAjcL2GYFrzW15Cz/OqxTtTDMU5CnkYCiKTtt3bAP+PY9/HDys2kDA0lYN++aa9z8q69286+91s2/7jo3bdEiXwEAAAAAAAAAAKD3ENZV4PzZs+6lH//YvfSTn7hDWp54IhlF1ygb/bbs5puTwM1CuKW1973IAry9Prjbv3VrEuapvJlRe9MWL3YLX/c6t6C2LHz9693CN7whKQMAAAAAAAAAAOgVhHUN0nSWBx97zB380Y/cS7Xl0JNP+jXF2eg3hXJL169PypoJ5CwUswBMI9402i1NODpOFJ5plF4sHp2n4NBUNYrPQjv114K8RkbkzVi2zC28/nq3aN260eWGG9zEwUG/FgAAAAAAAAAAoPsQ1hV04fx5t/8HP3D7H3nEHagt+x991L0yPOzX1qdAy0bKKZgrE8qFI9MsfLNRas2OTquSjQi04M7CvyW141WwVybUC4+50QBPI+6W3HSTW1xb9HP6kiV+DXqdvrbO1z6TfH0BAAAAAJBvwoQJyQIAALoXYV2Os6dOuX1bt7r93/++21dbDjz6qF9Tn4Kpte97X+FgzkI37U8sjKvsmW9dIgz0FOYpyJMi03zGAd62zZuT90XMWr3aLX3zm92S2qJrMmvVKr8G3W5kZMQdP37cnTx50p0+fTp5r6Bu4sSJvgYAAAAAAMii36Fl8uTJburUqW7atGlu5syZyU8AANAdCOtitdOxZ8sWt/d733N7H3rIHXz8cb8iX5lwTqGTjZLTz34L5BplQZ5GINpovKLnskx4N2P5crfs1lvd8tqin9OXLvVr0C3OnTvnDh8+7I4cOeLOnj2b/BIxffr05JeKKVOmENQBAAAAAFCCAjv951f9J9hTp04l/ylWZXPmzHHz5s1LftcGAACdQ1jnHXriCbf7u98dDepqSz1FwzmFSds/97nkNcFcY3SuiwZ4Ft7pnBc513PXrnXLbrvNrdiwwS3/hV9wE/nLaUcppDt48KB76aWX3Ny5c5NFQR0AAAAAAKiWgjv9J9mXX37ZzZo1yy1atCj5T7IAAKD9xnVYd6b2F5JdDzzgdteWXd/+tjtz+LBfk84CuqG77sp89loYzj1+773JT1RL10HnXwFeXlhadtSd2rrsF38xWeZdc40vRbscOnTI7d+/PwnoFi5c6AYHB/0aAAAAAADQKvqnQf2nWf3n2fnz57ulzEAEAEDbjcuwTqPodn7rW25XbTn42GO+NJ0FdNd/+MO+ZCzCuc4rEt6VCe40LebK2293l73tbckyYdIkvwatoGkud+/enYyqW7ZsGXPmAwAAAADQAfr9fN++fck0mStWrEgeRwEAANpjXIV1u7/9bffzb3wjWU7u3+9LL1U0oNt2//3u+K5dvhTdQtfPps3UdYzp+um6bd+8uW5wp7Bu1d/7e8kybdEiX4qqnDx50u2sXQ+NpluyZIkvBQAAAAAAnaJnyOs/1Sqw0/PsAABA6/V9WHduZMT9/Otfdztqi0K6c2fO+DVjWUCXNcUlAV1vKhLcFXnG3eIbbnCr7rjDrX77293sNWt8KZqhh1nv2LHDLV++nL/8AwAAAADQRew/1y5YsCB5VAUAAGitvg3rzp0+7V746792L37lK27nN7/pSy+VN4rOAjqmt+wPutYKYhXIZgV39a73vKuvdpe/853JMnftWl+Ksk6cOOFeeOEFt2rVKjd79mxfCgAAAAAAusXIyIh78cUXk8BOCwAAaJ2+C+s0ku7FL385CeqyQrq8UXSMoBsfbMTd0MaNlzzjrshou3lXXeUuv/NOd0VtmTM05EtRhP6y//zzzycPrNb0lwAAAAAAoDudOXMm+R1eU2Lyn20BAGidvgrrdnz1q+65L37R7fja13zJWPVG0f3ovvvqPsMM/afeffHgpk2Zod38665za97zHndlbZm+dKkvRR6NqJs5c6ZbxDMAAQAAAADoesPDw8mUmENDQ25wcNCXAgCAKvVFWLf3oYfc81/4gnuutqQ9ky4rjCky7SHGj3qj7fLCXNW/8pd/OVkmTp3qSxE7cOCAO3XqlFu9erUvAQAAAAAA3Y7f5wEAaK2eDuuOvfCC2755cxK4ndi715e+ipAOjcq7d/JCuyve9a4k7LvsF3/Rl8Bo6oxt27a517zmNfxPPAAAAAAAeoymw5w3b16yAACAavVkWHfh3LkkLNl+//1u/yOP+NJXKWhRyKKwJVQvaAFijQS+UxcuTLbRMufKK30pNGXG1KlTmf4SAAAAAICK3Xjjjf6Vc48++qh/Va3jx4+73bt3u6uuusqXAACAqvRcWHfwscfcs5/9rNv2f/6PLxlr3d13pwYrec8dA+rJC+2y7q3FN93krnr/+5ORduPd6dOnk2fVXXPNNb4EAAAAAAA0IwzoslQd3O3YscPNmjXLzZ8/35cAAIAq9ExYd35kxD37mc8kQd3hn/7Ul74qLaRTgPJgrfz4rl2+BGhOWmhno+y23X//JffahMFBd9Wv/VqyzBvHQdWePXvcpEmT3OLFi30JAAAAAABoVJGgzlQZ2Gl03d69e93atWt9CQAAqEJPhHWHnnzS/fQv/sL97C//0pe8SuHJhnvvdUtvvtmXtHYknfY3c+VKN6v2c3jXrmRfQiA4vuSFdmlTYy6u/SX6mg98wK15z3t8yfjy1FNPJc+qmzx5si8BAAAAAACNiIO6tDCuSJ1G6Xn0y5cvdzNmzPAlAACgWV0f1j33hS8kQd2BH/7Ql4wqG5Y0Y+3GjW7J+vXJ/sQCOoV2RmUK7B6/776Lr9H/yoTFg7Nnu2t+4zeS0G7a4vEzwuzYsWPu0KFD7oorrvAlAAAAAACgUUWfT1e0XlkHDhxw586dc8uWLfMlAACgWV0b1o0MD7unP/lJ99SnPuVGjh71paMUjGy4554xYdmP7ruv0pBOIYyCQAV0Cl22b97s9tZ+xiGc+rKstgzdddfF/iisUX/S6qM/KdDV/RLeA1nB8RV33umu/eAHk9F244GmwBwcHHQLFy70JYhtrn2/yEaebwgAAAAAyFE2gGtFYHfq1Cm3a9euvpwKU+erymATGG8+vXKl+82dowNdAJTTlWHd4WeecU998pPJM8Bi8bPpFIp87X3vqzQUC/ehtotOp5kW2FTdN3SvrNGeaffAouuvd9d+6ENuzbvf7Uv6l6bHuKx2bqZNm+ZLWsuCr1C3h2BVhHVpxy2dPvZuCCIJQwEAAAD0i24I6+Tpp59OHneh59P3i/BcCaEdUJxCujQEd0BxE/zPrrHnwQfdI//+318S1CkI+aVaWRiEaPTa5ltuqTQMs31YyFLmuXfbNm8e7Y//ElJot7G2vcI/9D/dhxpJt/nmm8fcA7qn4nvg4I9+5H7w0Y+6p/78z31Jf9L/BTh9+nRbgjoFMlmB1XjWrvPSDee/G/oAAAAAAOPB1KlTk9/3+0Uc1ElaGYBLZQV1krcOwFhdFdY9/6UvuUf/+I/d7u9+15eMUtCh0MueC2ZBWtXPplOoYvtIe+ZYUWFgJwr/COzGD4V2uj8VJosCO90Dur8UOptTBw64Rz72MffD//gf3cixY760v4yMjLgpU6b4d+2h0VPxMp5kHXunQqy4H53QDX0AAAAAgH6i3/X1Oz+A8a1IGEdgBxTTNdNgPvuZz7iffOITl4ySu+2ee5KpBU3Vz6YzYVBXxT5sJKBNiSmt6ju6V/x8RQua4/v86g98wL3hd37HTV+yxJf0h+PHj7uDBw+6K664wpe0joVRRUOZOLxK2y4t4IrrhfsN62fVC1mdrDYkbidL2EasyDpTpI6E9fLWp+07LKti/1K2D6bM/rWuTP1QWj0AAAAAKKtbpsE8cOBAMpvOkj74d4x6I+haMR1mM9cl7m/W9lXXy1Jk+7iOiesWrVdP2E4zx53Wn2aOrx8VDeIamQ4zre2wHVvfqak2W71/u6/q3UdZ16Ad56XT16DfdMXIuqc/9Sn32J/8ySUBhsIuC+paNZpONOotHLVXxT50LNs/9zn/btTQXXeNGVmF/qfRmfEouzAYNj/9i79IPgPDO3b4kv5w7tw5N2FCe79m0oKSWFjHQpQi20lWvbztm2m76LaNCNvOOg9F9h8GUXpdNJhq5njjeo30IWv/WX3Iqh/K2hYAAAAAqtDoP/5XHRpMnDgx+Z2/37UibMkKdurRdmnbtqMsjeo1s32r1Nt/0X5ntVOvfTRPAVBWAIXiuv0ccp0v1fGRdXpml8KxV44f9yWjo9I21MrCAE1TS7ZKmPxWPfpt40MPMboOCYXC9sxF3dMKc+N74cr3vjepN2v1al/S244ePZosq1at8iWtFQclaYGN1YnXZZWHwvatXlpZqNF2pci2Jq9u2rqs+nF50T4UbU+sTNLKi+5Limyf14cydaVeG1ntAgAAAEBVwrAgL0wqWq8Rhw4dcmfOnHHLly/3Jb0rK3xpZVCntsPXRWTVj8vT6jVTlqXqNsvsO0vYRlZ7VfRRrG7RbftV0bClzMgra7PbR2u1up9F7620foTXpVvPY69c53bq6Mi6pz75Sff4ffddEtSFz6fTyKRWBnXxs+SqDtJsRJVRWMPouvFJ91Y4wi7tWYbPff7z7kd/+qdJmNcPBgYGkmkx2kUBSRychEFLs/ICmCrCmbiNKtqsSpXn0TR6vJ06L2X624rzBQAAAAAShwxhgCBxWStCBP2ur9/5+0Ha+Wll8NLKtrPYPuN7JVa0XpZmt69CI+e37PlBd1DYE4ZSxsrTFhO+D9dbWaPCNsI2rawouxcbvefqBWBF+hbXCRcTvzdh3bQ64fu09WLl9daHr9Pq9ZKOhXXP/u//7X78X/6Le2V42JeMPt9LQZ3Zdv/9yRSCrbR0/Xr/anS0U9W2bd58SbvLoikQMX4osAvv6bTATiPufvyJT7jTL7/sS3pXp6bFUIhSL9CxIM+WNHGdrHq9rN7xhecxr14rhftt9f7teBvdRzecLwAAAAD9L/4HXP3Dri2xrPJm6Hd9/c6PcpoJe9ICJXvdCyGS3Ye2ZClaL02rz4P1J20/zfS7lxUZFdXoyKlGgpdwm3i/af1I20cVgU+r2i3K9lXvmG193Le0OiatzVCR4wzb0Ou4zSJ9NEX21ys6EtY9/8Uvup984hPuzJEjvmQ0qNOzvIxGIG3ZtMm/aw2NcAufHRY/Y64qe4MAUpb4gHDtxo3utnvuyV3CUXh6nVbHlnjEnt4rCNI6nVvd2JqWM3kWYJ0gw/qm+iGVq83wvIXC7bQfqxv3LdZMX8XOjbaxD7je19uvNNrnRiWjRWvtW4ibFtj97LOfdU/8t//mzo+M+JLeNHnyZPfKK6/4d+2XF7xoXdpiwm3S1veL8NjCJZRV3g7tvg62v2b20Y5+AgAAAEC9YELrwzpVBgj6XV+/8/eL+Fx2a9hi/QwDoXr3Qbcqeo679VrU06v9boSFKWny1mUJt1EQ00gYY20U2b/q2FKlZtst+9m2c5V3vmxd2C/7mbZdXKcM24ctRZXto1hdq9er2h7W7dmyxT3xP/6HO757ty8ZDVoUkhiNPGrHc93WRqP2WjX14P6tW/2rUbP8TTW8a5c7UTsPGmmnvtii9dpG4eHxWh2j1ypL28bWGwVQOqcanajQU+dUAZEoiLqtdn7jgCgp96GV1qvd8Hl7ak/lCpf0OqlXqy/a1rYTha3DtfNpdcN2YtZXhZpF+xrS9jYiU+dHYZiupfqf7DsjdKvX51bStdJx5gV2T/7ZnyVLLxscHEz+An/+/Hlf0l5VBS8mLfTrdlX32c5Hu89Fr16HTp0vAAAAAOOD/jE3azHh66oCBD2vbsqUKf4dqqRrFC6htOuXVlalsC9Z+89bH9+XWfdj0XrhvsLyssq2Y3XCfknc53B9kXb7RRiUVBGcxNsrpMkKapoR97GZPoeaabeK+0b7q+pYGtWK65Wm08dZpbaGdUe2bXNP/dmfuZefftqXjAZ1G3xYIlvuvjsJWzpB4VkrxO0qJBIdp0LJBzdtGhMU7tu6NZk+M+08hNuIttONH45CVICm8EfP+ovDvjggsr7Iutr7OKAzNtos7KfqWRC5QaPYau+tL+q/fsbP7IupXfVD/QqPN62vaSPstL3CNtXV/myaSRslqT6lBXYWEOf1Oe08VKloYLe9x/+Rf9q0ae7UqVP+XesoDImXNGF4krbErCxtXRF5+2uFrH2EYZcUPQ/h+/B13J4J61Qp7EM9RfqQdfzNCtsJX2edLwAAAABot2b/IVjPqzt58qSbOnWqL+kPYcgi9c5Tu4MY21+3hELx+ZK0sjRV1yujkX6H576IVvS7V1QdnDQaOllQ1K7AqBuE56recWt9uGSxdXl1YuH1KrKPLOG2jWzfi9oW1p0/e9Y9/T//p9v1wAO+ZJSCOguMFJIoMGmXGStW+FedpZAqnCqzSL8s4Imn7lSgpcAtKyRTQBSuU8hmFBxp0foxodxllyV90odCAaACVa3XouulgEnBVriNUXiWVi7qqwKqZH9BqGhUZqGkqG7Itlf7cbCp/WpUoahvcfBmoxHTzlNen6tmgZ0ZuuuuMQHqmcOH3VOf/KTb//3v+5LeM2PGDHf8+HH/rv3SQpKs4CQsD183G7g0ul0VtO+s/Zcpt3Mg7TyecF9VB19p7aisivY7db4AAAAAIE0cHih8aDTgOXHiRPK7/oQJHXm6Tkulnac0Vt7MecyiPoRLnnrrq5DXn6x1cb0qZe2zjKw20tqz65u2bryKQ5SySyOKhlBxUGTC8m5W5f2Wd650PtIWE75u5DymtVlW2Ea49LOBC/rvMG3w1J//ufvBRz/q343SyKZwlFkYWrRDuH/R/uPQpwoKu2yaRlEQpNArpH6EUy8mzzRLCbCMAjIFO3E7mtbRRotlifuTdtzWjthUmllsdFzWNdRIP5ueMtRIXxUUWqBr22f1T2GeTXEZbifqkwK7rG2z+twq4XHq/lBIGe77ijvvdG/+d//OTVu40Jf0Dv0lfu/evW5oaMiXAAAAAACAToiDpUb+QVi/40+cONEtXrzYl/SXtPAtPE9Z4VzZc1n2H+Wz6sflafWaKSuj6PZWT/LqFq2XpsyxZNUt00aomX53u7x/xy2jbOhi+w23K1qWJq+e1hXpX9n9F2m3kXuuTD/y+hdqR7129bGXtCWs27tli/vev/yXbnjHDl/yasAjWSFPq1lgY+JApypFwjoJAzKN+NIIryyqqzAprGPhlM5nvakTde5tX2n9CftSL8QMz2O9kNFU0VftN2tUnhQJ66Ron1st7G/aNVm3aZO7/vd+z7/rLc8++6xbtWpVMiUmAAAAAADonGaDhGeeecatWbOmr59ZF56johoNdIpul9enuI2suo3Wy5K2fdF9SFi3zPEVYe2lbdtsv8XqV93vbmcBSbPyApa8fZQJe2JFthWty+ufSWuj2Xbz7tssWfusV54m7VhiaXWyysI26vWjyL7F6qXtu9e1fLz6yPCwe/aznx0T1GkUmQV1CiU6EdR1UlYwFE7JuHT9ev/qUgr/JA7z7Jxq/dDGjbmL+qCgTEteUKXrkxfUiT23TtKeD5dGfZBG+mrta0RcXt/znkHYSJ9bTWGi3QMKJxUohp79zGfcrm99y7/rLfPmzXOHDx/27wAAAAAAQKfoH4FtKevIkSPJs+r6OaiTRs5NvXCnWVl9SiuvuqyoMtsWrdtMf4pqxT7a0e92ywtQymqkrSKhTF67Vfa/FRoJ6hqRdR6LhmVFz2NYr2ygVqSP/ajlI+ue/tSn3Pf/8A/9u1Hh9JP1Rm21UjiSSdSPVgSH8RSXeaPmwhFtWSO+NCpR4jbsZq1ihKD1I22EV0xBVxJ4BR/Aen2w9ls1mlHC8x7vp5E+t4P6FT7HMf58XP6Od7gNtftn0vTpvqQ3nD17Nvmfd1dffbWbPHmyLwUAAAAAAL3kueeec4sWLXKzZ8/2Jf2vaAjXj+EMEKo67Ko6eLH+pbWbtw5jcR47p6Uj6w4/80wyVWNIQZMFEQqtOhXUSTzySv1qxQirZf54jZ6TliU8XzZSLqT+qTyvjXZToKhQScGeUQiqkWFZ5zMMyTqhkT63g/r1YO0zYjZEo+te/OpXOx4oNmLSpEnJX+YPHjzoSwAAAAAAQC/RjDkDAwPjKqgThXD1gjiCOgBAs1oa1j3/pS+5Q08+6d+Nnf5SIV3eM9naQX0IwxqJg7WqaX95UzfqnFif9Ey1ODhSWVobFoBKJ4IwC7/C8FV9TUavRcfQjr4qdAtHM6ZJC+yy+txO6pdG+YnOTzwd5nOf//wl920v0IOnjx496k6cOOFLAAAAAABALzh//rzbv39/8rv9eJUV2hHUYbzQaKoql1aJRwAyGqwxnMf2a1lYd/Dxx93zf/VX/t2odcFIsceD57N1UjzyT89Iq1o4Qi7eX5q9UeAVGrrrrjHPtjPdEN5Y+BX2T2FTHH6Ffc17Nl9ZmtZU+9IUm3omXZHRh+qzpvms1+d20+g5Cz51D4QB58HHHnMvfPnL/l3vmDBhglu2bJnbu3evLwEAAAAAAL1gz549yYi6mTNn+pLxy0K7rPAOQGeEIZKCJVuEgKk4zmPntCys2/G1r40NZW6++WLgoBClk9NfhsKRbKI+VhnS2PPlRPspMpowDPQUzll/7GfaNIgKnUyVAVgjdIwKv+y8KvzSc9iM+npxXZPnWtdLwZq+KBS0KgRW+FZ2qsi0PqdNQ9pO4XSYug9CL/z1X7sTtb8o95q5c+e6adOmud27d/sSAAAAAADQzQ4dOuROnz7tli9f7ksAoDvp34jTFpSTdg61oLVaEtYd+dnP3I6vf92/GxWOqksbGdZJ8Wi3KkdVhSHLg5s2+Vf5wuk5FRrZ1JwKj/JG5lkAGgajnaLwS8drxxGHoBYu6vga7asFdfqpEX3xNJxlxYGdRrRVdR80QufIjkf3QHieDj3xhNvxN3/j3/WWFStWuDNnzrgDBw74EgAAAAAA0I2OHTuWTH95WQf/fQQAgPGgJWHdrgcecMdeeMG/GxseaVRdOAqsG1hIYxQgxdNPNkKj6tSW6BlkZYKksD8aMabQSH1SX7NsD0aTbYiec5anVYGUjjcMF8PnATbaV011aRTUic5VMyFdSCPysvrcCTa6TvdRPLpu5ze/6S6cO+ff9ZZVq1Ylz687ePCgLwEAAAAAAN1EQd2OHTuS3+GnTp3qSwEAQCtUHtYpPNj9ne/4d6O6eVSdUQgWPuNMo9iSsK3BIEvhpE2jqGMuOy2j6oej0tRWvXOnZ92FI/LCKTizKPBKC6QsZCwibyRiGC6GbTbaV2sj3F/4jL+i8voc3gfDHQ6W80bX7fnudy/5rPWKSZMmucsvvzwJ7Pbt2+dLAQAAAABANzh8+LDbuXNn8rs7z6kDAKD1Kg/r9m3d6vY8+KB/N6qbR9WFtmzadElgp6VsYKfjtVFfmpoxbzRcnnCEl0bVhX1Lo3MbBnrq+8aHHkrtv8rUx+HaX7ziIDGsr3CsyPFnjUQMtw1DtUb7mnYuU8PG2jZh+ZLgOX52PxYZPVnViL1m6Dl8omsRH+ve733Pv+o9kydPdmvWrEmmxNT/1HvllVf8GgAAAAAA0Cl79+5NZsLR7+yzZs3ypQAAoJVaEtaFwmkLu3VUXUiBnQK28LllGx9+ODmOIqGVRogpWFLI0+wz1JJw0/dDP4sEnQrEwvOsgEf9VxB22z33JIseBqkyXSsdb0zBWSgtDAspRMsKNS0Q03mIz0W9vupcZvVV58LOTbxvXasN944+M8/oGOzaSNE+d4Pw3MVTYe77/vfd2VOn/LveM2HCBLd69Wo3bdo0t23bNvfyyy/7NQAAAAAAoJ2OHz/utm/f7s6ePeuGhoaS39UBAEB7DFyo8a8r8fV/8A/GjPZROGIjmT7tpzDsFeq3nqdmUy9KEpxs3XpxlNgsH/Zo5JZCHq3XSKiqgh6FVmpXoVaZEXoKpuLQzSjkUpAV91HbKAwKj9eorgIu0Yi/cFvro6ifChltFJj6oP1tvuWWZH2aRvoqCtp0f1l/VUdlujYW7CWj9YL1dm3CPut5gtpG9XT8dh0VtnaL8BzFIXD4GetlJ0+eTB5aff78ebdw4UI3Z84cvwYAAAAAALSKfh9/6aWX3KlTp9ySJUvc3Llz/RoAANAulYZ1R7dvd19+17vcK8eP+xKXjIwSBThpo7h6gQUh9uy9cDSWRngpxNrvA7wio9/K0L4UHjUylaa2tdDMJKP1MvpYNPAJgyLRSLYklKu1a+dG+1U9BZtF+l62ryH1W9sp2IuvgZ0/lYf9rqLP7aRjtFGBChfDqUtv+shH3Gv/8T/273qfnmOnXxIU2ukXhNmzZ7spU6b4tQAAAAAAoFkaPXfs2LHkd/CRkRG3YMGC5D/OAgCAzqg0rHvxK19xDwShgQKR23zoEQcMAIpToKjpQEWBYjjqb8173uPe8vGP+3f948SJE8kvDfrlQdNlTp8+PZmCY3Bw0E2aNCkpGxgY8LUBAAAAAEAa/WdYhXMK5U6fPp2MoNNPPY9Os9owsw0AAJ1XaVgXT9UYTjW4WSOfCoySApDOpruMpxWdf8017t3f+IZ/15/0S4Sm5dBP/XKhXzL0y0aFX18AAAAAAPQl/WdX/afXyZMnu6lTpyb/EXbGjBl+LQAA6AaVhnXf+af/1D3/hS/4d6+GC/FIIADlhc+tC8PvgdpfuN//2GNuyrx5yXsAAAAAAAAAANA7JviflTgRjZyzZ4HpmW69zI4DKKvKe0fP3TN6vp65cPasO33okH8HAAAAAAAAAAB6SaVh3fE9e/yrztAoPi1VBCTJ8/buucdtfOihMcEIUI/dO7+5c2fb7p2R4WH/CgAAAAAAAAAA9JJKp8H8/666yp09edK/c0lYIfGz7FrFgrVmp91U2DJUWxT6qT21pTbRPJ1bTeUYjhIrQ89A/HQXh6d5946FyDZ9pU0RK1Y/7z5TnY1+/Za773bbNm9OXsvbP/tZt3zDBv8OAAAAAAAAAAD0iupG1l24MCaos2BCjrdpGkwbxRTuuxEKQRSyNBooob4Tu3e77Z/73JhFZQrjtOj1/q1bxyym2evbSnn3jkJKHZue5Sjrau8V2InWLfOvi7B73ZwbGfGvAAAAAAAAAABAL6l0GsxQHCa0mkY0XRylVNu33qP76No8uGlTMtJS1ytcwlB32/33J8FXuGypbafydt9bjVDYGFLAOKvWb4V4D959d1KmZznOKhE82og8mbFihX816sK5c/4VAAAAAAAAAADoJS0L69o1ms5oZNL2zZsvBnaainC86eYRZ0Yhk12jRmgEXi9S0GYh3YZ77x1zrRQslz2uOAwcmNCyjzIAAAAAAAAAAGih6v6Ff2DATZg82b8Zq9UjoTSVoPahUUuP33ffxTKbYnA8WHf33aWmUeyUZsM2hcBlRqN1C4VzmgLTQmz7TOieVdBcJNwOA764/sTBQf8KAAAAAAAAAAD0kkqH40xbtMi/Gh1JZOIp+6o2dNddyfSI2mcYYvRCeFUFhTgKfHpBM6PqRNdYU2L2GvVbwZwCOxsB+qP77kvK9Yw70T2cJy/0njR9un8FAAAAAAAAAAB6ScvCOrHgTM/qaiWFcvu3bk1eJ2GODz0U4pWhkXiakjAZqZcyektlaYvJW2dUVm/En0bJxfL6pWkVZcn69Uk9W9LqprG2Y9o+7IvqZPVddcvssxnWL9uXfub1X/0KqTxtCRVZn3Uusiig07P6LGzUvWo/bckTjigcjuoOzp7tXwEAAAAAAAAAgF5SaVgXh3L1wocqJAFRbb/haCubalHlRQIVtfFL99+fhCHaZt2HP+w2+lFQRu1o9JrqaZ0CsnC9whu9t/VawpF9YSCmEHHjQw9dEoRp29/cufPiKDm1mbRXq2v7jp93dts991xsV/u/rbbeFh2L1mt7LaFwf6qrYzZ2PnQM1he9tyVsS+2Ex2Hr43CrCmpT+7J+2fXVe9uvnYskpKudDwXGqhv2Kb5OWh9fK51nW29hqITHq23UbquON8+YaTAHBtyUuXP9GwAAAAAAAAAA0EuqDesuv9y/GquVQYZGk8XTB2oEk023WG90nUIbtaGpCBX4aeSTXmuKwpDa27Jp08UgcHjnzqRuODpK7x+s1RFrT7QPvVYbqqd29FMhkYIhiafsVCCkkOjB2s/Nt9ySLOqTwqIwJFRb1tctqltbb4v2p/4q1IppXdpxGh2fUR/3bd2atK/tNJ2jlavfdh50jGpT+9Mxt5rCVV1f65f2q58WptkotrhPdo0t8NI5sGslto3asvOk49Pxap92vHa923W8uk+N9m9m1z530xYv9u8AAAAAAAAAAEAvqTSsmzs05F+NetwHQQozbMRT1RQWhSOcbLH9xSFYSOGLgkQFXjEFMQpqYsmz8XbuzGxX5Qp/bFuNbAuDL2PnxkauWYAUspDIqI4sDUKbkKZGVH1bRP0YMworYsFbSGFVEij67RQSad8WYtn50oi8OCjVfrVPXXMde5XUtvphAaP6pb5Yvz7t7zMFeOFxhX2y4FhlFrxmXUvVVVgqajc53iDUE7VrbVvw2irWz/icz7v6av8KAAAAAAAAAAD0mkrDunnXXptMyWfCkKjs8+OKSMK2lSuT0U3xYsFXXlCo8CUtrDJpIZtCHm2T1a6O00I10Sg4hSwaeRUuNu2k2rGRYKGsfuUFb62SFmYqiFNfNPovPjYLxLJCsKpY2BZSnzQKUQFaPRefbZgSsukYdA10vUXXS23HxxoerwWvrWD3utjzGc38667zrwAAAAAAAAAAQK+pNKybf801bvEb3+jfjQZbFpq0IrixKTBtdFPaIuHz2IwFLCd2705+lmEhURxAqk0Ld8RGWiUB4t13X7LYdJVhuFeE9b2TdD11rGnHpaBUx2WBaaukBZfh+a9HdXX/KHSNz6mCtzAMtGubd7wKCdshDnIXvu51/hUAAAAAAAAAAOg1lYZ1EoZ1omedSd4It0Zp1FrWM9fk4jScKeGWPfetkZFqCgG1ndoI204CnmCaRBsJpboKerKWXnTx2FKOJ1y6ga5R2j0gNkotHBWnugojLewVHa/u5bRjtKWVwtF/4b7mDA25RdFnDgAAAAAAAAAA9I7Kw7olb3qTfzUqfL5WlVNhatRaEprlhCQWxCloiZ8nZus0Oq8RNurKQj8LeOJnmokFW1Wosq1+puuh6UW16Bpl3Se6XnHwqtfxqDrJelZgq2n/FnTHz6vTPTdlzhz/DgAAAAAAAAAA9JrKw7plt97qFq1b59+NjgKyEUpVToWpkC0cxZYm3Hf8XLJhH97MajD80tSVCnkUQCpMiQMesekKq35eX15A2S46rzpuC7K6iQI6PUtOdJ3qTTMaB6/xcwftfHfqWMNRf/E9ps8bAAAAAAAAAADoXZWHdZNnzHAr3vpW/27UxekoV650t91zT/K6WQpW4md3pbF9a2RSOA1nMjVlbVFZPOquKO1fx6QQUoFKHArZ6D2tzwp6sgIv2zZULyyalbNe/awybBqu9U9thkFSrNHzKo2OINQ+1SdNj1ovpDOql9wL69cnQV8ciEkSTta5f6ue5lV0zSxEtOczGk05S1gHAAAAAAAAAEBvqzysk5Vve5ubumCBfzcadFjIUMXoOgUqSdhWYIRZGHqFI9y0rYUyCnfiIEuhj/XVfsZ1bPvb7r039dl52ocCFoU8GukVb69wZ4OCopIjtxSUhewYNdrQ2tA5stfWvoU+Jtl/TvhkgVlaCGXHqza1r5iO10YvFhVOSZp3n8xYsSL5mVbH+hzuW+fBzkVWCKjgVcepeySealIe9MeofcbHq7ZtJF8s7ziKyBtVt/L2292UuXP9OwAAAAAAAAAA0Ism/mGNf12Z6UuXuuM//7l76Sc/8SXODdSWVW9/uxucM8ed2LXLvfz006MrSlAoct2HPpQEGGpnYECtvhpGhRS8KJi59oMfdAuuuy4p089wGwWICuVUT+0qWNHoKr3e8Y1vJPW1Lmmrtu99W7e6kWPHku1FbWh79UVhTrjO6DhX145b7ejndbX+zL/2Wnf7pz7l3IUL7lv/8B8m9bSPN9cuhYVJrwwPJyGctan9JAFcbf2U2bMvnj+t1+skXLzllqTPeq2+/fxv/iapo6k+1b4WO0bt6+e1Y3y61g8dr9rVdq/U2lObb/qDP7h43tTPkVp/xPqjnzqX1q621XGprXW16/P9P/qjMaPAsui8DtaOR9vp/OhcWrn1xfZp11+LaDu79lZHknNRO0Ztv/qOO9yba8eiejpGjT7UHaD92Lai49N2aicteLXj1T0cH6+uaXi8Wvcm/7FSn8NrVVZyn9So7bBfc9ascW/43d910xYu9CUAAAAAAAAAAKAXDVyo8a8rtWfLFvfAb/3WmKBFo8gUdCiE+tr73jcmLClCIUgajaKKgyHtJ0s8Kk8hmAIsjVjbv3Wr2+afhacpD/Veo66y+qo+aUTYlk2bfMmldOwagaZ96LXa0vScYZ+zjk190TZpI7Ti49ZxaNSZRmClnQ+FaPExqm2Fn2FZmfNs2ysQ1Gvtu+j0k6J+5U3fKXb+8+pa30X91zMKw/7ote4/Ba5Z/dPouPi6xNQHjb6z6xEfb5lzV4/6Y/exPi/h9q//7d92b/z93/fvAAAAAAAAAABAr2pZWCcPf+Qj7qf/63/5d6NBhqaMFAUPCiAAXEohnU2tGX9W5q5d697y8Y+7+TbyEQAAAAAAAAAA9KyWPLPOrHnPe5IRTUajn+x5YAoj0p51BmB0VJ2x5+WZK3/5lwnqAAAAAAAAAADoEy0N65bcdFMy/WNIz93SNJSi6QTDMA/A2KAuni52+W23uSvf+17/DgAAAAAAAAAA9LqWhnWy9ld/1S3fsMG/c0nw8KB/vtvMlSuT54gBGKWpYu05dZr+MnxO3cQpU5LPk55LCAAAAAAAAAAA+kPLw7oZy5e7q37t19yUefN8yWgIoRF2wnSYwCh9FuyZjhp9Gj/T8epf//VkalkAAAAAAAAAANA/Wh7WyeV33pkEDSE9u86mw7z+wx8msMO4pulgxzynzo8+NctuvdVdFX2GAAAAAAAAAABA72tLWCdXf+AD7oo77/TvRqfDTJ7HRWCHcU5B3cZgussttc9BOP2lpr285jd+w81Zs8aXAAAAAAAAAACAftG2sG764sXu2g9+0C18wxt8yauBnRm6667kmV3AeBI+t1HTw27bvNm/G3Vd7XOz+o47/DsAAAAAAAAAANBP2hbWyeIbb3Sv/Uf/KHmOnVFgt/nmm5PXM1euTEbY6dldwHigqS/tftfUsI8HwZ3o86KQGwAAAAAAAAAA9KeBCzX+dds88+lPu0c+9jF37vRpX+KSEXW3+aBCU2Nu/9znLgkugH6hqS81os6COk17GY4ylaFf+RV340c+4qYtWuRLIDfeeKN/5dyjjz7qXwHA+GXfi3wnAo3jcwSgEXx3NIbzBvSmvM+urQupXtY2fA9gvKvqM9Duz1LWZ13y1qGYjoR18uP/+l/dY//pP/l3owjsMB7Ez6hLC+o07eUN/+JfuLlr1/qS/hF+cTfyhd3s9gD6S9pfBmU8fT/YOeA7EeNFvb8LNLK+05+jsE+hZvpT7zykyepHmk6dK6ARrfiMSSu/O+p9Hnv5M9jK8wZ0ynj4MzTrs5t17KpXbxu+B1CVvPuwG1X1GWi0nUbOV942vXb+u1Vbp8EMveF3fidZQnpW15a7705e25SY6/z7fqPARqOqFFBmTfupctVD/9A1DYM6TX0ZB3Ur3vpW9/raZ6Mfg7rxJusPKgDN0+cr7zPWS5+/Zvuqv/zyF2CMJ1Xd793wuemn7zKgW/EZ6z783QXoX/b5rvcZ53sAVerFP+s79RnQ+ajifFn/044hbx3ydWxknZw9fdr9+L773E/++3/3JaMUUOlZXgrsRIHGlk2bktf9QIGNji+kkYQP1o5Ro6zE6uh5fnquXzew4DRttONt99zjlvm+7tu6Nblm1m9tN2PFiuR1bL/qbt6cvFZwOVRbdP217eO1e8PORz8IR47Kj2rHF5/LFW95SxJSL37jG31Jf7EvfH1Zh6/LCP/Q6OYv/UaPr5/oHDR6/M1si/Eh77ugl+6f8fBdwXcBWiHvs2PrJG99uC6vvVYJ+ynxvusdR57weJo5tmb6UJb21eg+mtkW/S3vHq7ivrH2W3H/tbJtAK2X9/3Tq7K+l/K+r/guQ6vlfda0rt/vvTKfsfBcSdr5Mmnt5e2rTD+QraNhnZwbGXE//tM/dT/++Md9yag4sFOYpRFI3RJcNeM3a8diAaSNnLPwbvMttyQ/Vb62drzdMg2oBU1pAZP6rnBRoyKXrF+fhHbhFKZxMGm0jbUXtq9rres+dNddYwLMXqbAUiGc0b0cH9dlb3ubu/73fs8tWrfOl/Sf8Iu7yJd4+IeEWN20diStrbz1We3HsvZn6rVrwnphm7GsdVn9yGvDpNUxcV3Jq19Evf7laWZbjA9V3V8mrQ2rV2ZdWF5kP2l1JKyX1WZWnTTxfrLqSVqf8urXk9XnIprZFv0v674Py4vUMWnbhdLqSty21FtvitQr2lbMttM24euyGt1/Wc3sp119RG9q9P4P7yuT1ka99ou2k6Zo3/Pqpa0Ly+L+5e2raN2s9rP6kKbZfZms7aRo/aJ9AWLhvVP2Ho7rF7lf6+2vTPtp24vVC9en9U2sTto2ktdW2v7z1mF8K3tvhPXttclro0xdietLuE1ev+ttG8prJxa2W689SetvTHXy1oXievX6ELddrz3JarNXdGwaTDNxcNCt27TJ3fDP/pmbNG2aL3VJKKdAQ6GWKLxR6NPr02IqlBKFUqLj1KL3OkYFWFaeF9SpngV9Me0jb71oXd56o3Y2PvTQmBFhIWvn07W+J9OY1q6lgjoFU9a+rmO8aPSdQjk7RtW392rHRuatCwKuXqRzoPu2XlB3+Tvf6W745/+8r4O6LFlf6GnlzXwJh/XUTlb7aeUma11Ynrd9Ver1MW19WnlW3Wal7aeoZrbF+FPmL2G6l7Lup6rvsyL7KbvPRvqobdK2SyvPqtuMtH0U1cy2GF/K3hv16metD8sb+btHrGh7Zb7n6il7rtol7leZfjazLcaXoveG6mXVLXN/VdVOGXG79faTtj6rrEy5yVuXpep9NdKWyapXdHugjLx7KmtdXN7I30+y7ues8liROo2I223VftBfyt4nafWzyqooLypr22balHD7sr9/5O27SL9UJ61eVrnJWldvu17W8bBOBiZOdG/43d91b/z933fTFi3ypaOBlUIsC7YUZin0UPhRJGjqRjZS0H6avQ8/PCbEUUimEXh2nDpmLZpuUuV6rWefhefBtlGwZuvDcNOCI9XROr2udx4VoOn8a9ScXsc0+k/XKWQBnEbYpdE+dR01as7Ebei96g2n7LNX6NzrPOu6iM5fWlC39ld/Nbn3F7z2tb6kP9mXqH3pl/mLZLiU+TKuVzduu4h69eN19eo3I6/dcL9ZdUxct179etK2L3Ld0uo02xf0nzLfAWnC+zy8v5ptN5a2j1C8rl59U6ROLGy73rZx3Xr186Rty3cBqtLsPZG3vdbZUlbV3yWNsD5Y/xs5jnZK6x/fFahKeE+U+Xxqu3AxZT/jVbWTJ63dsP1wfaxM38K6Yf16ytaXcD9Ft22mft52ReoAVUm7z8L7L1yk6HdJvXppbRcR12+kjVC4XdnvM4xfafdNUXa/FmkjrBvWzxLXL7KNpG2nRcoeX1XCPkjYr7x1sXBd2vosWfXDtrLq9JquCOvMtR/8oLvp3/wbN//aa33JaGij8Echh4VFCj8UNPXiKDsbKbjhnnsujrITHWe96R513LNWrkyeY2fnIxyxpXOiMq3XSDeFbFpvgZyFcwreVEcj4OLAL6Z+JSPd/HPlYmkBnrWnKTHTbKhdT/UtPF49n04Bpq6ptlcoqffqY69R/3Wuw2uj49UUp+ExD0yY4F73T/6Ju/Ff/Ss3+4orfCmk0T988v5ANc38wRZ/6XfqD4GsP4CqPm/NKNu/tHWdOr/oP3n3Xivus7jNKvahNsq00y3fB2l95rsArVLF/Rvfb/Xuv6x9tuK+rfrz2U34rkC76N7Jurfy7rky91dV7Rjrc7yEstrN21+8Lq1uvJ8y1F7e/mPN7iuUtd+i+2imL0Ajyn5e6sm6h8N9dOt9nnUeqjw/6G+6t4vc3/E9lXaPlf2cdOvnqlFVHE8zbeia5H32++18S1eFdXLle9+bBHaXvfWtvmSUQg4FVPEou14L7BR+JUFb7adGwCWj3B56qNBx2MgsC/Y0Gk/hndj2Cre0XhRyWjiUhGA+wFPwpjparzazRsAVMVxrRyFiGPiFIVXMpui00NKonwoRta0CRI3YU50w3OoFOr600XQ22tDMWL7c3fRv/6278V//azd1wQJf2r+yvjztC7fe+lDRsiK033AxWf3pJWWPLa5XhbTrkraPtLJGrymQZ7zeV/b5tsWkffYkrtcsvgvQbnbf2M8q72fTrfdm1rG28lxUJe2c8l2BKuj+iO8R3Uf1Pi/N6tR92arPuZ2z+Ny1Yn+t3leZa9PqvgBFxPdh1v3X6PdOVttZ+2mXTu8fvUP3fnz/x/dzs6y9uN20fTT7d4B4X2n76EVZx9TM8cVt9bquC+tk+YYN7k1/8Afu6l//dV8yygImC+wkCXcKhl3dwoJHjW5TQKXQzY6j3ii30Induy+GQkZthSzcCylQskXrskbAFaFj0fWwaTV1DAraVK7+xXScqp/WJ4WXWqc+67yoHY2w6wU2mi58tp/OQTyaTpa++c3J/X3dhz7kS8YX+xJt9ZdpP31Rt0o7/jKT9heUsP20fTX7lxoA5bX6+4DvArRS0fvU6rXq3qrq85KlbL/Vn3DpBXxXoJV0r9hieuGzEfY7XGJxWVodAL0n/p7K+g7I0it/BwjxfYZG2ecjvGd67TPQ7Ge+Sp3abz1p50TnrRe/72JdGdbJnKEh9+Y/+qNklN3MFSt86SgFdgq6LASxUXYKiuLwqpspsNIoty2bNiXHo+NQQNWIGf4cpU1LKUt9IKfzFC4KmdJCtTJ0PRSw7du6NRnZp9e6DnFwqH3pGONRdaK+KKhTW7quOi9638yov3bQMSkojkfTWegY0/Pp3vzRj7rL3/EOXwJT1Rdq2h9qaeyLPWvpZWnHEy6xtPIq/4BL22fWH6JpdQE0zj7fWUssrbyq74O0/fFdgGZ0+j6x/cf3cJF+dbLvVX2mWyXt3PBdgar1470Tf0aq/KzrfOUtVUprP1zaKW3/4QK0Wvg5Lnvfxd8BWdtau1lLJ7Ty+wzjR5X3b/y5iJeqNPOZr6fKthphx5O1NCJt217/vujasE4mTJ7sXvtbv+XW//Efu8ve9jZfOkpBl43AsoBKQVAyuknPO8sZodZJ6pv6GNPx6DgsdGuUzoGxIEk/h/050jnTaK9wSQvPilLbCqkUsClo02LXIx5RpiBS6+JRdaJ+23ZG71XerdfSQjoFjUYhnc6pzkNo1urVSfC8/qMfHfNMxvEg7Q+aeMmS9gWb9aWb106abv3yrqJfjbZR73o0o0i7rdo3+kt4n5S91zv5+eqUbvs+4LsArWL3ei/eP3mf0zKf4bCufYbjpVcU6WsvHQ96S6N/dsaqaqesVnw22nks7dhX0X106hoCsTKf67LfAd18n/NnPbpF2c9Js5+rVt/7ef1r1XdCK79rdL765fuiq8M6s/L2290t/+E/uNf/9m+7wTlzfOkojcBSAKWQxCgUUiBmQVU30Sg29SnuV1K2cmXDo9w0ok3CkWg6D0N33ZWEY/u3bk3K4jBPz8xrZvSattW5Do9H+42DOlGoZf1ME0/Hae/Twr1OSkK6hx4aE9IpWNToyDikk9V33OFu/tjHkuB50vTpvnT8KfOl2ewXbN4fAP3y5Z2m248tr3/9fF3QWkX+wpd3f7XyL4yd1M2fKb4L0E52T7X6s95s+2nbh2Vpnw2tT9uu7Ocoq52imt0+C98VqELWvZlWnndflbnHq2qnDGvX9m0/8/YXr0ur287PWjv2VXQf7TxuoBFFv0vy6nXrfW59tv7Zz6LHjPEn696od8/E69Pql/2ctOpz1Yr7P63NsKyqY2nVOelXAxdq/Oue8OJXv+q2/eVful0PPOBLXqXASAFKOJWkQhQFRBo91g2hj/poI+s0TaTCOY2msz4reFTQpdFqqqcASP22bcKpFRUa6Xg/7QM4e2/BpV5r5KECTVHAJDofOi9DGzcm78M282h7bRsHUmG7dizWb6Pj1ig0O76Ynlmn/to50bSdOgdh/ztN51fhZxh46jzqfKf1cdaqVe41739/skxdsMCXjj/2RZ/35Zz2h0HWH0Ran9dmkT9Ysto28XZF9pe1TSisU68PUqYfpl67RfuQt49mxftt5b7Qv8rc61J1fcnaJu2ezlqXtp+wTl6bpkzbobT9pMnbdzPifbZqP+hvRe6jsE7WfWZ18ravt62UvY/j/qcpekz1+inxdvX63uz6KoT7kFbtB/0pvn9i8f3UaP1m20lTtI2wXthukfI0zR6L1Y/LQ1l1qtxXI/sI65btCxAL76Gs+yXvHpZ696EU2bbR9uPtsvqbdxxltgn7U6QckPD+SJN172VpZf20+zqtLE/W/uLyLI3sw+Ttq8i6LGWPKa+9rG16RU+MrAvpWV+3/smfuHWbNo0ZzSUKh/T8tzAQUrCiEEhhVzdMj6k+qn/6qVBLfdNPhT5hv/U+meLTB16P33dfsoQUQKqOUYim9wrMtL0CszBE0vSMCtQUhCmo2+5HJRalUCp+Dp3Y8dhz8eKgTnQdtH1aUCc2QlLUjqbt1PtuCOoU0mkEoq5VGNTpeJJpRFP6eOV73+tu/c//ORkNSlBXX9oXadGyRqidrLaq3EeeVu1f2zfbdrN9qCdsv9X7Qv/SvVPm/smrn1Zepm4zqm4vpLabPY5W98+0cj/ob71+76j/eceQtS4ub/TvXHn7LqLZ7YsI99GO/aG/5N0zaetUlrVNmfuvqnbKiNutt5+09VllWW3V20dZ7dhX3j5C7egLUE+r78Fuvc/jfXeyL+h+efdH2XVZZVntlK1fT5n9NKpe/6rcl8nbZ5X7a0Xf263nRtaF9vqRXs/93//rLpw/70tfpdFaCqU0QssoxFLgpO2ygqN2seAwDrbQebo2FqaGdP+kjS40S266KRl9d2VtmTg46EsBAADQr+r9z08A6CZ8ZwEAxjP+HEQ36+mwzjz3+c8ny+7vfMeXjKWwbt2HPzwmtBONTNOz3Lph9Ba6Q6Mh3azVq93Qr/yKu7K2aPpLAAAAjA/8wg+gl/CdBQAYz/hzEN2sL8I6OX3okHv+i190z3/pS+7g44/70rEUxNi0kyELYjTirtOj7dAZac+jk3ohnaa4XPPudyfLohtu8KUAAAAYD+yXfeEXfgC9gH+kBACMZ/w5iG7WN2GdUbiiwO6Fv/or9/Izz/jSsbJCO9H2ehYZo+36X9YoOqkX0k2eOdNd8ff/vlvzrne5Zbfd5ksBAADQ78KAzvDLPoBewT9SAgDGM/4cRDfru7DOHH3uOffiV7/qdnzlK+7QU0/50rEU1iy7+eZLnmsnCmu65dl2qI4FdHmj6DQ9atZzBAfnzHGXv+Md7vJ3vtOteMtbfCkAAADGizis4xd9AL2Ef6QEAIxn/DmIbta3YZ0Z/vnP3Q6Fdl/7mjvw2GO+9FL1RlkR3PUuu7ZL16+/JJSVeqPoZPqSJW71L/2SW33HHW7Zrbf6UgAAAAAAAAAAgOb0fVhnTh086H7+jW+4nf/v/7mdf/u3vvRSeaPtxIK7/Vu3MlVmF8sbQSdFRtHJvGuucav+7t91K2vLouuv96UAAAAAAAAAAADVGDdhnblw/rzb+c1vji5/+7fu1IEDfs2lygR3w7t2Mequg+xaKZhLGx0pFtDpmtW7VpricuXf+Ttu5e23p4Z9AAAAAAAAAAAAVRh3YV3o0JNPut0PPOB2ffvbbv8PfuBL01kYtGT9+mTEVhrCu/YJw7ms0XNSdASdzFq1yq1461vdZbVFPydMnuzXAAAAAAAAAAAAtMa4DuvM2VOn3O7vfMft+e53k596zl2eMLibtXJl6qg7UVCkgGjf1q2FRnMhm865haT1wjk750UCuolTprjlv/ALboWWt7zFzb7iCr8GAAAAAAAAAACg9QjrIgrq9n7ve6PLww/nTpNpioy6Mzb67sTu3Rdf1wuUxhOdS7HzuLR2TrPCUGOj58oEompz2S23uGW33uqW3HSTLwUAAAAAAAAAAGgvwrocR7ZvT8KfZNm61Z06eNCvyVcmvBMbDTZc+2lTaEo/j8TTOdLouFn+54wVKwqdK2kknJMk+PPhn66PGxjwawAAAAAAAAAAADqDsK6gYy+84PY/8og7oOWHP3RHtm3za+qz8E4U4Ol11jSOsTDIs9F4CvOsvFvZCDkdpx27gjIL6YrQMYqCOSkbzk2ZO9ctvukmt+TGG0d/MoIOAAAAAAAAAAB0GcK6Bpw5etQd/OEP3YHHHnMHtTz+uHvl+HG/tphwZFm9Z9/VY6GWhXpGo/RiNmovZNubtDBN/TTheo2IU9+lTBAXs/BRIxj1utHpQedfe61bdMMNbnFtWfTGN7o5a9b4NQAAAAAAAAAAAN2HsK4CR7dvdy/95CfuUG156Ykn3KEnn3RnT570a8uJQzxpJsjrJmEgJwrkpJnpPueuXesWvO51bsHrX+8W+mXilCl+LQAAAAAAAAAAQHcjrGuBo889515+6qlkOfT00+7wM8+4k/v3+7WNC6eWtJFuYaAnzYxua0Q8qk9TdRqt00i+qp69pxBu/jXXuHnXXusWXHedm19b9HPi1Km+BgAAAAAAAAAAQG8hrGuD0y+/7I787GfuyLPPusPbtrmjteXI9u3u1IEDvkb1LNgzaQFeOLVlrN50mY1MUVmGAri5Q0Nuztq1yei5ea95jZt71VVu9uWX+xoAAAAAAAAAAAC9j7CuQ0aOHUtG4B17/nl39IUX3LHaMvzii+7Yjh1u5OhRX6v/DUya5GatWpWEcMlyxRXJc+Zm15Y4cAQAAAAAAAAAAOg3hHVdRkGdppPUyDVNKXl8zx53srac2LvXndi3z52sLRfOnfO1e8OUefPcjGXL3PSlS92M5cuTZeaKFaNTdtYWvQcAAAAAAAAAABiPCOt6jMI8Tat55siRZNH7ZBkeTpZXtJw44V45ftydPXXKnT150p0/e9ZvXYGBATdp6lQ3ecYMN2n6dDd55sxkGZw1y02uLYOzZ7spc+a4wblz3ZTaMnXePDdl/nw3YdIk3wAAAAAAAAAAAAAMYR0AAAAAAAAAAADQIRP8TwAAAAAAAAAAAABtRlgHAAAAAAAAAAAAdAhhHQAAAAAAAAAAANAhhHUAAAAAAAAAAABAhxDWAQAAAAAAAAAAAB1CWAcAAAAAAAAAAAB0CGEdAAAAAAAAAAAA0CGEdQAAAAAAAAAAAECHENYBAAAAAAAAAAAAHTJw+PDhC/41AAAAAAAAAAAAgDYaGB4eJqwDAAAAAAAAAAAA2s65/x/z31gP5ZbJ0QAAAABJRU5ErkJggg==;" vertex="1" parent="1">
                    <mxGeometry x="60" y="390" width="1771" height="145" as="geometry"/>
                </mxCell>
                <mxCell id="3" value="" style="rounded=0;whiteSpace=wrap;html=1;strokeWidth=4;strokeColor=#c81e1e;gradientColor=none;fillColor=none;" vertex="1" parent="1">
                    <mxGeometry x="60" y="390" width="250" height="140" as="geometry"/>
                </mxCell>
                <mxCell id="4" value="" style="rounded=0;whiteSpace=wrap;html=1;strokeWidth=4;strokeColor=#c81e1e;gradientColor=none;fillColor=none;" vertex="1" parent="1">
                    <mxGeometry x="311" y="392.5" width="1520" height="140" as="geometry"/>
                </mxCell>
                <mxCell id="5" value="" style="rounded=0;whiteSpace=wrap;html=1;strokeWidth=4;strokeColor=#211ec8;gradientColor=none;fillColor=none;" vertex="1" parent="1">
                    <mxGeometry x="320" y="400" width="1500" height="70" as="geometry"/>
                </mxCell>
                <mxCell id="6" value="" style="rounded=0;whiteSpace=wrap;html=1;strokeWidth=4;strokeColor=#211ec8;gradientColor=none;fillColor=none;" vertex="1" parent="1">
                    <mxGeometry x="320" y="470" width="1500" height="50" as="geometry"/>
                </mxCell>
                <mxCell id="7" value="" style="rounded=0;whiteSpace=wrap;html=1;strokeWidth=4;strokeColor=#c81e1e;gradientColor=none;fillColor=none;" vertex="1" parent="1">
                    <mxGeometry x="330" y="410" width="1040" height="50" as="geometry"/>
                </mxCell>
                <mxCell id="8" value="" style="rounded=0;whiteSpace=wrap;html=1;strokeWidth=4;strokeColor=#c81e1e;gradientColor=none;fillColor=none;" vertex="1" parent="1">
                    <mxGeometry x="1380" y="410" width="210" height="50" as="geometry"/>
                </mxCell>
                <mxCell id="9" value="" style="rounded=0;whiteSpace=wrap;html=1;strokeWidth=4;strokeColor=#c81e1e;gradientColor=none;fillColor=none;" vertex="1" parent="1">
                    <mxGeometry x="1600" y="410" width="210" height="50" as="geometry"/>
                </mxCell>
                <mxCell id="10" value="" style="rounded=0;whiteSpace=wrap;html=1;strokeWidth=4;strokeColor=#c81e1e;gradientColor=none;fillColor=none;" vertex="1" parent="1">
                    <mxGeometry x="330" y="480" width="200" height="30" as="geometry"/>
                </mxCell>
                <mxCell id="11" value="" style="rounded=0;whiteSpace=wrap;html=1;strokeWidth=4;strokeColor=#c81e1e;gradientColor=none;fillColor=none;" vertex="1" parent="1">
                    <mxGeometry x="570" y="480" width="200" height="30" as="geometry"/>
                </mxCell>
                <mxCell id="12" value="" style="rounded=0;whiteSpace=wrap;html=1;strokeWidth=4;strokeColor=#c81e1e;gradientColor=none;fillColor=none;" vertex="1" parent="1">
                    <mxGeometry x="850" y="480" width="200" height="30" as="geometry"/>
                </mxCell>
                <mxCell id="13" value="" style="rounded=0;whiteSpace=wrap;html=1;strokeWidth=4;strokeColor=#c81e1e;gradientColor=none;fillColor=none;" vertex="1" parent="1">
                    <mxGeometry x="1110" y="480" width="200" height="30" as="geometry"/>
                </mxCell>
                <mxCell id="14" value="" style="rounded=0;whiteSpace=wrap;html=1;strokeWidth=4;strokeColor=#c81e1e;gradientColor=none;fillColor=none;" vertex="1" parent="1">
                    <mxGeometry x="1360" y="480" width="200" height="30" as="geometry"/>
                </mxCell>
                <mxCell id="15" value="" style="rounded=0;whiteSpace=wrap;html=1;strokeWidth=4;strokeColor=#c81e1e;gradientColor=none;fillColor=none;" vertex="1" parent="1">
                    <mxGeometry x="1610" y="480" width="200" height="30" as="geometry"/>
                </mxCell>
            </root>
        </mxGraphModel>
    </diagram>
</mxfile>